<svg xmlns:dc="http://purl.org/dc/elements/1.1/" xmlns:cc="http://creativecommons.org/ns#" xmlns:rdf="http://www.w3.org/1999/02/22-rdf-syntax-ns#" xmlns:svg="http://www.w3.org/2000/svg" xmlns="http://www.w3.org/2000/svg" xmlns:sodipodi="http://sodipodi.sourceforge.net/DTD/sodipodi-0.dtd" xmlns:inkscape="http://www.inkscape.org/namespaces/inkscape" id="svg2" xml:space="preserve" width="723" height="333.63867" viewBox="0 0 723 333.63867" sodipodi:docname="TurgemanLogoPositive.ai"><metadata></metadata><defs id="defs6"><clipPath clipPathUnits="userSpaceOnUse" id="clipPath20"><path d="M 0,250.229 H 542.25 V 0 H 0 Z" id="path18"></path></clipPath></defs><g id="g10" inkscape:groupmode="layer" inkscape:label="TurgemanLogoPositive" transform="matrix(1.3333333,0,0,-1.3333333,0,333.63867)"><path d="m 85.644,56.555 h -28.95 v 23.406 h 28.95 z" style="fill:#47b2ca;fill-opacity:1;fill-rule:nonzero;stroke:none" id="path12"></path><g id="g14"><g id="g16" clip-path="url(#clipPath20)"><g id="g22" transform="translate(232.5497,193.5356)"><path d="m 0,0 h -24.006 v -22.506 h 15.753 l 0.771,-3.772 5.9,-25.551 h -23.487 l -10.61,-38.194 h 30.307 l 6.836,25.007 5.775,-25.007 h 27.57 L 19.655,-15.904 C 17.404,-4.951 11.253,0 0,0 m -175.784,-103.659 h 28.807 V 0 h -28.807 z m 297.058,13.636 h 28.807 V 0 H 121.274 Z M 233.952,0 h -74.718 v -22.506 h 14.103 v -44.711 h -14.103 v -22.806 h 42.761 v 67.517 H 224.2 v -67.517 h 28.807 v 72.469 C 253.007,-7.802 244.455,0 233.952,0 M 89.721,0 H 28.805 v -22.506 h 51.163 v -67.517 h 28.807 v 72.318 C 108.775,-8.102 100.373,0 89.721,0 M -62.864,0 h -75.919 v -22.506 h 18.004 l -18.755,-67.517 h 30.308 l 18.455,67.517 h 18.155 v -44.711 h -22.056 v -22.806 h 50.863 v 72.318 C -43.809,-8.102 -52.361,0 -62.864,0 m 312.326,-115.246 h -18.321 v -3.527 h 3.059 v -18.07 h 4.608 v 18.07 h 9.466 v -18.07 h 4.608 v 18.106 c 0,1.908 -1.548,3.491 -3.42,3.491 m -31.317,-3.527 h 4.32 v -18.07 h 4.716 v 21.597 h -9.036 z m -7.382,3.527 h -18.574 v -3.527 h 3.671 v -14.47 h -3.671 v -3.6 h 8.279 v 18.07 h 9.107 v -18.07 h 4.608 v 18.142 c 0,1.908 -1.548,3.455 -3.42,3.455 m -25.955,0 h -17.062 v -3.527 h 4.463 l -4.823,-18.07 h 4.787 l 4.823,18.07 h 6.624 v -14.47 h -6.084 v -3.6 h 10.692 v 18.106 c 0,1.908 -1.548,3.491 -3.42,3.491 m -24.984,0 H 141.25 v -3.527 h 3.672 v -14.47 h -3.672 v -3.6 h 8.279 v 18.07 h 9.107 v -18.07 h 4.607 v 18.142 c 0,1.908 -1.548,3.455 -3.419,3.455 m -38.555,-15.801 c -0.397,-1.584 -1.296,-2.196 -2.772,-2.196 h -5.04 l -0.756,3.455 c 3.492,0 4.319,1.728 5.004,4.464 l 2.52,10.078 h -4.608 l -2.519,-10.078 c -0.252,-1.008 -0.577,-1.08 -1.117,-1.08 l -2.447,11.158 h -6.191 v -3.527 h 2.483 l 3.996,-18.07 h 9.107 c 3.599,0 5.903,2.052 6.802,5.615 l 3.997,15.982 h -4.608 z m -34.991,20.841 h -4.571 v -8.567 h 12.49 l -6.731,-18.07 h 4.788 l 8.026,21.597 H 86.278 Z m -18.937,-16.702 2.555,11.662 h -4.462 l -2.773,-12.31 -8.711,12.31 h -4.894 l 4.247,-5.975 c -1.944,-1.08 -1.98,-2.484 -2.304,-3.959 l -2.556,-11.663 h 4.464 l 2.736,12.311 8.711,-12.311 h 4.931 l -4.248,5.904 c 1.98,1.079 1.98,2.591 2.304,4.031 m -32.541,8.135 h 5.111 v -8.495 h 4.644 v 12.022 H 34.8 Z m -21.455,0 h 13.066 v -12.095 c 0,-1.331 -1.116,-2.375 -2.448,-2.375 H 13.345 v -3.6 h 10.726 c 3.816,0 6.948,3.096 6.948,6.911 v 14.686 H 13.345 Z m -13.248,0 h 4.319 v -18.07 h 4.715 v 21.597 H 0.097 Z m -7.382,3.527 h -18.574 v -3.527 h 3.672 v -14.47 h -3.672 v -3.6 h 8.279 v 18.07 h 9.106 v -18.07 h 4.608 v 18.142 c 0,1.908 -1.548,3.455 -3.419,3.455 m -32.976,-3.491 c 0,1.908 -1.548,3.491 -3.456,3.491 h -13.282 v -3.527 h 12.131 v -14.47 h -12.131 v -3.6 h 19.618 v 3.6 h -2.88 z m -23.219,0 c 0,1.908 -1.548,3.491 -3.457,3.491 h -13.282 v -3.527 h 12.131 v -14.47 h -12.131 v -3.6 h 19.618 v 3.6 h -2.879 z m -30.49,-0.036 h 4.824 v -14.47 h -6.228 v -3.6 h 10.835 v 21.597 h -9.431 z m -15.12,0 h 5.111 v -8.495 h 4.644 v 12.022 h -9.755 z m -23.544,-18.07 h 4.607 v 13.03 h -4.607 z m 0,21.597 h 19.762 v -21.597 h -4.607 v 18.07 h -15.155 z" style="fill:#231f20;fill-opacity:1;fill-rule:nonzero;stroke:none" id="path24"></path></g></g></g></g></svg>